<svg width="855" height="664" viewBox="0 0 855 664" fill="none" xmlns="http://www.w3.org/2000/svg">
<g id="undraw_snow_fun_re_plbr 1" clip-path="url(#clip0_1_3)">
<path id="Vector" d="M295.252 627.139H278.752C277.521 627.137 276.304 626.884 275.174 626.394C274.045 625.905 273.027 625.19 272.184 624.293C271.337 623.395 270.686 622.332 270.27 621.17C269.855 620.008 269.685 618.772 269.771 617.541C269.966 615.227 271.031 613.073 272.752 611.513C274.473 609.954 276.721 609.105 279.043 609.139H282.752V589.139H304.752V617.639C304.749 620.158 303.747 622.573 301.966 624.354C300.185 626.134 297.771 627.136 295.252 627.139Z" fill="#B7B7B7"/>
<g id="snowman2-left-arm">
<path id="Vector_2" d="M274.91 534.833L257.419 525.135C254.87 523.719 252.988 521.349 252.186 518.546C251.384 515.743 251.727 512.736 253.141 510.186C254.555 507.636 256.923 505.751 259.725 504.947C262.528 504.142 265.535 504.483 268.086 505.894L285.578 515.592C287.481 516.647 289.028 518.243 290.024 520.177C291.02 522.111 291.42 524.297 291.173 526.459C290.926 528.62 290.045 530.66 288.639 532.321C287.233 533.981 285.366 535.187 283.275 535.787C282.659 535.964 282.029 536.087 281.392 536.155C279.147 536.395 276.882 535.933 274.91 534.833Z" fill="#CCCCCC"/>
<path id="Vector_3" d="M235.204 500.24C235.873 499.034 236.772 497.971 237.852 497.113C238.931 496.255 240.169 495.618 241.494 495.238C242.82 494.858 244.207 494.743 245.577 494.899C246.947 495.055 248.273 495.48 249.479 496.148L250.558 496.532L249.613 494.264C249.487 493.961 249.421 493.636 249.421 493.308C249.42 492.98 249.484 492.654 249.609 492.351C249.734 492.047 249.917 491.771 250.149 491.539C250.381 491.306 250.656 491.121 250.959 490.995C251.262 490.869 251.587 490.803 251.915 490.803C252.243 490.802 252.569 490.866 252.872 490.991C253.176 491.116 253.452 491.3 253.684 491.531C253.917 491.763 254.102 492.038 254.228 492.341L256.918 498.796L264.091 501.349C264.601 501.531 265.069 501.814 265.466 502.182C265.864 502.55 266.182 502.994 266.403 503.489C266.623 503.983 266.741 504.517 266.749 505.058C266.757 505.6 266.655 506.137 266.45 506.638L259.616 523.273C259.386 523.835 259.03 524.336 258.576 524.74C258.123 525.144 257.583 525.439 256.998 525.604C256.414 525.768 255.799 525.797 255.202 525.689C254.604 525.58 254.039 525.337 253.55 524.977L239.295 514.514C236.86 513.164 235.061 510.901 234.294 508.224C233.526 505.547 233.854 502.675 235.204 500.24Z" fill="#448508"/>
</g>
<path id="Vector_4" d="M306.752 603.639C329.672 603.639 348.252 581.253 348.252 553.639C348.252 526.025 329.672 503.639 306.752 503.639C283.832 503.639 265.252 526.025 265.252 553.639C265.252 581.253 283.832 603.639 306.752 603.639Z" fill="url(#paint0_radial_1_3)"/>
<path id="Vector_5" d="M283.252 553.639C284.909 553.639 286.252 551.356 286.252 548.539C286.252 545.723 284.909 543.439 283.252 543.439C281.595 543.439 280.252 545.723 280.252 548.539C280.252 551.356 281.595 553.639 283.252 553.639Z" fill="#448508"/>
<path id="Vector_6" d="M282.252 567.839C283.909 567.839 285.252 565.556 285.252 562.739C285.252 559.922 283.909 557.639 282.252 557.639C280.595 557.639 279.252 559.922 279.252 562.739C279.252 565.556 280.595 567.839 282.252 567.839Z" fill="#448508"/>
<path id="Vector_7" d="M298.002 627H314.502C317.021 626.997 319.436 625.995 321.217 624.214C322.998 622.433 324 620.019 324.002 617.5V589H302.002V609H298.294C295.972 608.966 293.723 609.815 292.002 611.374C290.281 612.934 289.216 615.088 289.022 617.402C288.936 618.633 289.106 619.869 289.521 621.031C289.936 622.193 290.588 623.256 291.435 624.154C292.278 625.051 293.295 625.766 294.425 626.255C295.554 626.744 296.772 626.998 298.002 627Z" fill="#CCCCCC"/>
<g id="snowman1-left-arm">
<path id="Vector_8" d="M186.132 548.276L172.904 533.276C170.974 531.088 169.992 528.223 170.175 525.311C170.358 522.399 171.69 519.679 173.878 517.75C176.066 515.82 178.931 514.838 181.842 515.021C184.754 515.204 187.474 516.536 189.404 518.724L202.632 533.724C204.071 535.356 204.994 537.377 205.284 539.534C205.574 541.69 205.218 543.884 204.261 545.837C203.304 547.791 201.79 549.418 199.909 550.511C198.027 551.604 195.864 552.114 193.693 551.978C193.054 551.939 192.419 551.844 191.796 551.694C189.6 551.168 187.621 549.973 186.132 548.276Z" fill="#CCCCCC"/>
<path id="Vector_9" d="M160.319 502.375C161.353 501.463 162.557 500.763 163.861 500.316C165.166 499.87 166.546 499.684 167.922 499.77C169.298 499.857 170.644 500.213 171.882 500.82C173.12 501.426 174.227 502.271 175.139 503.305L176.027 504.029L175.897 501.574C175.88 501.247 175.927 500.919 176.037 500.609C176.146 500.3 176.315 500.015 176.535 499.771C176.754 499.527 177.02 499.328 177.316 499.187C177.612 499.045 177.933 498.963 178.261 498.946C178.589 498.929 178.917 498.976 179.226 499.085C179.536 499.195 179.821 499.364 180.065 499.583C180.309 499.803 180.508 500.068 180.649 500.365C180.791 500.661 180.872 500.982 180.89 501.31L181.26 508.293L187.163 513.103C187.582 513.445 187.928 513.869 188.179 514.349C188.43 514.828 188.582 515.354 188.624 515.894C188.666 516.433 188.598 516.976 188.424 517.489C188.25 518.001 187.974 518.473 187.612 518.876L175.598 532.258C175.192 532.71 174.689 533.064 174.126 533.292C173.563 533.521 172.956 533.618 172.35 533.577C171.744 533.536 171.156 533.357 170.629 533.054C170.102 532.752 169.652 532.333 169.311 531.831L159.389 517.195C157.547 515.106 156.61 512.371 156.785 509.592C156.959 506.813 158.231 504.217 160.319 502.375Z" fill="#CF0000"/>
</g>
<path id="Vector_10" d="M195.092 613.957C201.203 610.745 202.199 600.612 197.316 591.323C192.434 582.035 183.522 577.109 177.412 580.321C171.301 583.533 170.305 593.667 175.187 602.955C180.07 612.244 188.982 617.169 195.092 613.957Z" fill="#B7B7B7"/>
<path id="Vector_11" d="M220.252 617.139C243.172 617.139 261.752 594.753 261.752 567.139C261.752 539.525 243.172 517.139 220.252 517.139C197.332 517.139 178.752 539.525 178.752 567.139C178.752 594.753 197.332 617.139 220.252 617.139Z" fill="url(#paint1_radial_1_3)"/>
<path id="Vector_12" d="M209.382 617.312C215.622 614.358 217.04 604.275 212.55 594.791C208.06 585.306 199.362 580.012 193.122 582.966C186.882 585.92 185.464 596.003 189.954 605.488C194.444 614.972 203.142 620.266 209.382 617.312Z" fill="#CCCCCC"/>
<path id="Vector_13" d="M183.752 565.139C185.409 565.139 186.752 562.856 186.752 560.039C186.752 557.223 185.409 554.939 183.752 554.939C182.095 554.939 180.752 557.223 180.752 560.039C180.752 562.856 182.095 565.139 183.752 565.139Z" fill="#CF0000"/>
<path id="Vector_14" d="M189.645 547.831C190.389 545.115 189.697 542.558 188.099 542.12C186.501 541.683 184.602 543.53 183.858 546.247C183.115 548.964 183.807 551.521 185.405 551.958C187.003 552.396 188.902 550.548 189.645 547.831Z" fill="#CF0000"/>
<path id="Vector_15" d="M183.752 578.339C185.409 578.339 186.752 576.056 186.752 573.239C186.752 570.422 185.409 568.139 183.752 568.139C182.095 568.139 180.752 570.422 180.752 573.239C180.752 576.056 182.095 578.339 183.752 578.339Z" fill="#CF0000"/>
<g id="snowman2-head">
<path id="Vector_16" d="M306.252 514.639C323.925 514.639 338.252 500.312 338.252 482.639C338.252 464.966 323.925 450.639 306.252 450.639C288.579 450.639 274.252 464.966 274.252 482.639C274.252 500.312 288.579 514.639 306.252 514.639Z" fill="url(#paint2_radial_1_3)"/>
<path id="Vector_17" d="M333.252 473.139H280.252C278.529 473.137 276.877 472.452 275.658 471.233C274.439 470.015 273.754 468.362 273.752 466.639V461.639C273.752 444.796 290.803 429.139 309.252 429.139C327.701 429.139 338.752 444.796 338.752 461.639V467.639C338.75 469.097 338.17 470.495 337.139 471.526C336.108 472.558 334.71 473.138 333.252 473.139Z" fill="url(#paint3_diamond_1_3)"/>
<path id="Vector_18" d="M310.252 437.639C314.67 437.639 318.252 434.057 318.252 429.639C318.252 425.221 314.67 421.639 310.252 421.639C305.834 421.639 302.252 425.221 302.252 429.639C302.252 434.057 305.834 437.639 310.252 437.639Z" fill="#C9ECA9"/>
<path id="Vector_19" d="M298.752 483.139C300.409 483.139 301.752 481.796 301.752 480.139C301.752 478.482 300.409 477.139 298.752 477.139C297.095 477.139 295.752 478.482 295.752 480.139C295.752 481.796 297.095 483.139 298.752 483.139Z" fill="black"/>
<path id="Vector_20" d="M281.752 483.139C283.409 483.139 284.752 481.796 284.752 480.139C284.752 478.482 283.409 477.139 281.752 477.139C280.095 477.139 278.752 478.482 278.752 480.139C278.752 481.796 280.095 483.139 281.752 483.139Z" fill="black"/>
<path id="snowman2-norse" d="M292.094 492.072C292.065 492.072 292.037 492.071 292.008 492.07L264.414 490.863C264.096 490.883 263.782 490.791 263.525 490.603C263.268 490.416 263.085 490.144 263.007 489.835C262.93 489.262 263.383 488.758 264.11 488.609L290.493 483.178C290.905 483.093 291.333 483.146 291.71 483.33C291.874 483.403 292.019 483.513 292.133 483.652C292.247 483.791 292.328 483.954 292.368 484.129L293.579 490.765C293.606 490.941 293.585 491.121 293.517 491.286C293.45 491.451 293.339 491.595 293.197 491.701C292.883 491.948 292.493 492.079 292.094 492.072Z" fill="#FF9165"/>
<path id="Vector_21" d="M294.012 497.308C289.877 497.308 286 494.676 286 496.88C286 499.084 289.877 505.291 294.012 505.291C298.147 505.291 301.874 500.938 301.874 498.733C301.874 496.529 298.147 497.308 294.012 497.308Z" fill="url(#paint4_linear_1_3)"/>
</g>
<g id="snowman1-head">
<path id="Vector_22" d="M219.752 528.139C237.425 528.139 251.752 513.812 251.752 496.139C251.752 478.466 237.425 464.139 219.752 464.139C202.079 464.139 187.752 478.466 187.752 496.139C187.752 513.812 202.079 528.139 219.752 528.139Z" fill="url(#paint5_radial_1_3)"/>
<path id="Vector_23" d="M227 431C231.418 431 235 427.418 235 423C235 418.582 231.418 415 227 415C222.582 415 219 418.582 219 423C219 427.418 222.582 431 227 431Z" fill="#F9C7C7"/>
<path id="Vector_24" d="M246.752 486.639H193.752C192.029 486.637 190.377 485.952 189.158 484.733C187.939 483.515 187.254 481.862 187.252 480.139V475.139C187.252 458.296 201.303 424.639 219.752 424.639C238.201 424.639 252.252 458.296 252.252 475.139V481.139C252.25 482.597 251.67 483.995 250.639 485.026C249.608 486.058 248.21 486.638 246.752 486.639Z" fill="url(#paint6_linear_1_3)"/>
<path id="Vector_25" d="M205.752 496.139C207.409 496.139 208.752 494.796 208.752 493.139C208.752 491.482 207.409 490.139 205.752 490.139C204.095 490.139 202.752 491.482 202.752 493.139C202.752 494.796 204.095 496.139 205.752 496.139Z" fill="black"/>
<path id="Vector_26" d="M194.752 496.139C196.409 496.139 197.752 494.796 197.752 493.139C197.752 491.482 196.409 490.139 194.752 490.139C193.095 490.139 191.752 491.482 191.752 493.139C191.752 494.796 193.095 496.139 194.752 496.139Z" fill="black"/>
<path id="Vector_27" d="M200.89 509.257C196.755 509.257 192.878 506.625 192.878 508.829C192.878 511.034 196.755 517.24 200.89 517.24C205.025 517.24 208.752 512.887 208.752 510.682C208.752 508.478 205.025 509.257 200.89 509.257Z" fill="url(#paint7_linear_1_3)"/>
<path id="snowman1-norse" d="M198.802 505.571C198.778 505.571 198.753 505.571 198.728 505.57L174.97 504.43C174.686 504.439 174.408 504.346 174.186 504.169C173.964 503.991 173.813 503.74 173.759 503.46C173.74 503.183 173.828 502.908 174.004 502.693C174.181 502.478 174.432 502.338 174.708 502.302L197.424 497.176C197.779 497.095 198.152 497.146 198.472 497.319C198.617 497.394 198.744 497.5 198.842 497.631C198.94 497.762 199.007 497.913 199.038 498.073L200.081 504.338C200.105 504.501 200.088 504.668 200.031 504.822C199.973 504.977 199.877 505.115 199.752 505.222C199.489 505.452 199.151 505.576 198.802 505.571Z" fill="#FF9165"/>
</g>
<g id="snowman1-right-arm">
<path id="Vector_28" d="M239.035 557.769C238.395 557.769 237.755 557.713 237.124 557.603C234.981 557.229 232.996 556.229 231.422 554.728C229.847 553.226 228.753 551.292 228.277 549.169C227.802 547.046 227.967 544.829 228.752 542.8C229.536 540.771 230.904 539.019 232.684 537.768L249.044 526.263C251.43 524.585 254.385 523.923 257.26 524.424C260.134 524.925 262.691 526.547 264.37 528.933C266.048 531.32 266.709 534.275 266.208 537.149C265.708 540.023 264.086 542.581 261.699 544.259L245.34 555.764C243.496 557.068 241.294 557.768 239.035 557.769Z" fill="#CCCCCC"/>
<path id="Vector_29" d="M281.137 517.141C280.344 516.013 279.336 515.052 278.172 514.314C277.008 513.575 275.709 513.073 274.351 512.837C272.992 512.6 271.6 512.633 270.255 512.934C268.909 513.236 267.636 513.799 266.508 514.592L265.476 515.089L266.174 512.733C266.268 512.418 266.299 512.088 266.265 511.761C266.232 511.434 266.134 511.117 265.977 510.828C265.821 510.539 265.609 510.283 265.353 510.076C265.098 509.869 264.804 509.715 264.489 509.621C264.174 509.528 263.844 509.497 263.517 509.532C263.19 509.566 262.873 509.665 262.584 509.822C262.296 509.979 262.041 510.192 261.834 510.447C261.628 510.703 261.474 510.997 261.381 511.312L259.394 518.017L252.533 521.32C252.045 521.554 251.61 521.886 251.254 522.294C250.898 522.702 250.628 523.177 250.462 523.693C250.295 524.208 250.235 524.751 250.285 525.29C250.334 525.829 250.493 526.353 250.75 526.829L259.316 542.642C259.605 543.176 260.012 543.637 260.506 543.99C261 544.344 261.568 544.58 262.167 544.681C262.766 544.782 263.38 544.745 263.963 544.574C264.545 544.402 265.081 544.1 265.53 543.691L278.589 531.77C280.867 530.168 282.415 527.726 282.893 524.983C283.371 522.24 282.739 519.419 281.137 517.141Z" fill="#CF0000"/>
</g>
<g id="snowman2-right-arm">
<path id="Vector_30" d="M328.154 530.997L326.75 550.948C326.545 553.858 325.193 556.568 322.99 558.481C320.787 560.394 317.915 561.354 315.005 561.149C313.564 561.048 312.157 560.664 310.864 560.018C309.572 559.373 308.419 558.48 307.472 557.389C305.559 555.187 304.599 552.314 304.804 549.404L306.208 529.453C306.36 527.283 307.153 525.207 308.486 523.487C309.819 521.768 311.631 520.482 313.695 519.792C315.758 519.103 317.98 519.041 320.079 519.614C322.178 520.187 324.059 521.37 325.486 523.013C325.906 523.496 326.284 524.015 326.615 524.564C327.781 526.498 328.318 528.745 328.154 530.997Z" fill="#EEEAEA"/>
<path id="Vector_31" d="M313.565 581.598C312.19 581.501 310.847 581.134 309.613 580.518C308.38 579.902 307.279 579.05 306.375 578.008C305.471 576.967 304.781 575.759 304.344 574.451C303.907 573.143 303.732 571.762 303.828 570.386L303.721 569.246L302.064 571.06C301.843 571.304 301.576 571.501 301.278 571.641C300.981 571.781 300.659 571.861 300.33 571.876C300.002 571.892 299.674 571.842 299.364 571.73C299.055 571.619 298.771 571.447 298.528 571.225C298.285 571.004 298.089 570.736 297.949 570.438C297.81 570.141 297.731 569.818 297.716 569.49C297.702 569.161 297.752 568.833 297.865 568.524C297.977 568.215 298.15 567.932 298.372 567.689L303.087 562.525L302.372 554.944C302.321 554.405 302.381 553.862 302.546 553.346C302.712 552.831 302.98 552.354 303.335 551.946C303.69 551.537 304.124 551.204 304.612 550.969C305.099 550.733 305.629 550.598 306.17 550.573L324.134 549.742C324.741 549.714 325.346 549.824 325.904 550.065C326.462 550.306 326.957 550.67 327.353 551.131C327.749 551.591 328.034 552.136 328.188 552.724C328.342 553.311 328.361 553.926 328.242 554.521L324.777 571.861C324.581 574.639 323.29 577.225 321.188 579.051C319.085 580.877 316.343 581.793 313.565 581.598Z" fill="#448508"/>
</g>
<g id="Christmas tree ">
<rect id="Rectangle 1" x="538" y="600" width="79" height="61" fill="url(#paint8_linear_1_3)"/>
<path id="Vector_32" d="M382.172 606.799H541.285L613.188 606.799H787.631C788.421 606.799 789.197 606.591 789.881 606.196C790.565 605.801 791.133 605.233 791.528 604.549C791.923 603.865 792.131 603.089 792.131 602.299C792.131 601.509 791.923 600.733 791.529 600.049L738.396 508.022L737.985 508.204C696.86 526.435 649.156 535.679 596.199 535.679C574.961 535.638 553.749 534.215 532.696 531.418C477.608 524.151 437.296 509.938 432.531 508.21L432.69 507.786L431.789 507.36L378.275 600.049C377.88 600.733 377.672 601.509 377.672 602.299C377.672 603.089 377.88 603.865 378.275 604.549C378.67 605.233 379.238 605.801 379.922 606.196C380.606 606.591 381.382 606.799 382.172 606.799Z" fill="url(#paint9_radial_1_3)"/>
<path id="Vector_33" d="M591.119 226.761C564.893 226.616 538.798 223.056 513.491 216.171L512.882 215.992L523.03 200.415H491.225C490.435 200.415 489.659 200.207 488.975 199.812C488.291 199.417 487.723 198.849 487.328 198.165C486.933 197.481 486.725 196.705 486.725 195.915C486.725 195.125 486.932 194.349 487.327 193.665L531.562 117.049L532.434 117.538L532.226 117.92C548.704 125.743 566.711 129.818 584.952 129.851C601.836 129.912 618.49 125.945 633.533 118.279L633.112 115.466C582.773 141.27 534.291 115.99 532.245 114.897L531.79 114.654L584.901 24.6611L682.477 193.665C682.872 194.349 683.08 195.125 683.08 195.915C683.079 196.705 682.872 197.481 682.477 198.165C682.082 198.849 681.514 199.417 680.83 199.812C680.145 200.207 679.369 200.415 678.58 200.415H646.774L656.901 215.958L656.349 216.165C635.209 224.111 612.287 226.761 591.119 226.761Z" fill="url(#paint10_radial_1_3)"/>
<path id="Vector_34" d="M596.176 532.762C575.002 532.726 553.853 531.308 532.863 528.517C475.914 521.009 434.281 507.877 432.536 507.237L431.978 507.032L459.016 460.202H433.809C433.019 460.202 432.243 459.994 431.559 459.599C430.875 459.204 430.307 458.636 429.912 457.952C429.517 457.268 429.309 456.492 429.309 455.702C429.309 454.912 429.517 454.136 429.912 453.452L499.034 333.727H453.857C453.067 333.727 452.291 333.519 451.607 333.124C450.923 332.729 450.355 332.161 449.96 331.477C449.565 330.793 449.357 330.017 449.357 329.227C449.357 328.437 449.565 327.661 449.96 326.977L459.52 310.419L460.398 310.896L460.197 311.292C463.777 313.017 488.553 324.432 528.697 330.322C545.003 332.682 561.458 333.853 577.934 333.827C620.916 333.827 664.682 326.235 708.03 311.259L707.73 310.394C631.768 336.635 568.583 333.237 528.923 327.428C486.425 321.206 461.263 308.804 460.212 308.279L459.738 308.042L512.752 218.139L513.488 219.114C538.769 226.01 564.842 229.571 591.046 229.706C615.589 229.706 637.553 226.154 656.337 219.148L656.14 218.625L657.041 218.199L719.844 326.977C720.239 327.661 720.447 328.437 720.447 329.227C720.447 330.017 720.239 330.793 719.844 331.477C719.449 332.161 718.881 332.729 718.196 333.124C717.512 333.519 716.736 333.727 715.946 333.727H670.768L712.708 404.367L712.139 404.567C644.256 428.429 579.6 427.087 537.313 421.759C494.079 416.309 464.607 407.698 460.59 406.198L460.256 407.052C464.272 408.554 493.753 419.185 537.137 424.66C554.246 426.811 571.473 427.893 588.717 427.9C632.325 427.9 674.068 420.975 712.785 407.317L713.177 407.179L739.893 453.452C740.288 454.136 740.496 454.912 740.496 455.702C740.496 456.492 740.288 457.268 739.893 457.952C739.498 458.636 738.93 459.204 738.246 459.599C737.561 459.994 736.785 460.202 735.996 460.202H710.787L737.935 505.221L737.426 505.446C690.295 526.296 640.19 532.762 596.176 532.762Z" fill="url(#paint11_linear_1_3)"/>
</g>
<g id="Star">
<path id="Star_2" d="M595.02 40.1139C594.478 40.1119 593.951 39.9331 593.52 39.6047L584.623 32.9284C584.37 32.7378 584.062 32.6325 583.746 32.6277C583.429 32.6228 583.118 32.7187 582.86 32.9015L573.76 39.3C573.328 39.6035 572.811 39.7626 572.284 39.7544C571.756 39.7462 571.244 39.5712 570.822 39.2543C570.4 38.9375 570.089 38.4952 569.933 37.9907C569.778 37.4862 569.786 36.9455 569.957 36.446L573.557 25.9206C573.66 25.6209 573.666 25.2962 573.572 24.9933C573.479 24.6904 573.292 24.4248 573.038 24.235L564.141 17.5588C563.719 17.2419 563.407 16.7995 563.252 16.2949C563.097 15.7903 563.105 15.2494 563.276 14.7499C563.447 14.2503 563.771 13.8177 564.203 13.514C564.635 13.2103 565.152 13.0511 565.68 13.0592L576.802 13.2311C577.119 13.2366 577.43 13.1413 577.689 12.9591C577.948 12.7768 578.143 12.517 578.245 12.217L581.845 1.69158C582.006 1.18586 582.328 0.746765 582.762 0.441413C583.196 0.136061 583.719 -0.0187503 584.249 0.000647471C584.778 0.00310858 585.293 0.176077 585.716 0.493926C586.14 0.811775 586.45 1.25759 586.6 1.7653L589.874 12.3966C589.966 12.6997 590.153 12.9654 590.406 13.1556C590.66 13.3458 590.967 13.4505 591.284 13.4547L602.406 13.6266C602.934 13.6348 603.446 13.8099 603.868 14.1268C604.291 14.4437 604.602 14.8861 604.757 15.3907C604.913 15.8953 604.904 16.4361 604.733 16.9357C604.562 17.4352 604.238 17.8678 603.806 18.1715L594.707 24.5695C594.447 24.7514 594.252 25.011 594.15 25.3108C594.047 25.6106 594.042 25.9353 594.136 26.238L597.41 36.8698C597.571 37.374 597.566 37.9168 597.394 38.4177C597.223 38.9186 596.895 39.3509 596.458 39.6506C596.038 39.95 595.535 40.1118 595.02 40.1139Z" fill="#FFD000"/>
</g>
<g id="Sled">
<path id="Vector_35" d="M478.752 662.139H81.252C69.9842 662.126 59.1816 657.645 51.214 649.677C43.2465 641.71 38.7647 630.907 38.752 619.639C38.752 618.313 39.2788 617.041 40.2165 616.104C41.1541 615.166 42.4259 614.639 43.752 614.639C45.0781 614.639 46.3499 615.166 47.2875 616.104C48.2252 617.041 48.752 618.313 48.752 619.639C48.7618 628.256 52.189 636.517 58.2818 642.609C64.3746 648.702 72.6355 652.129 81.252 652.139H478.752C480.078 652.139 481.35 652.666 482.288 653.604C483.225 654.541 483.752 655.813 483.752 657.139C483.752 658.465 483.225 659.737 482.288 660.675C481.35 661.612 480.078 662.139 478.752 662.139Z" fill="#7F4F3A"/>
<path id="Vector_36" d="M439.252 616.139H107.252C105.263 616.139 103.355 616.929 101.949 618.336C100.542 619.742 99.752 621.65 99.752 623.639C99.752 625.628 100.542 627.536 101.949 628.943C103.355 630.349 105.263 631.139 107.252 631.139H139.752V649.139C139.752 651.526 140.7 653.815 142.388 655.503C144.076 657.191 146.365 658.139 148.752 658.139C151.139 658.139 153.428 657.191 155.116 655.503C156.804 653.815 157.752 651.526 157.752 649.139V631.139H262.752V649.139C262.752 651.526 263.7 653.815 265.388 655.503C267.076 657.191 269.365 658.139 271.752 658.139C274.139 658.139 276.428 657.191 278.116 655.503C279.804 653.815 280.752 651.526 280.752 649.139V631.139H385.752V649.139C385.752 651.526 386.7 653.815 388.388 655.503C390.076 657.191 392.365 658.139 394.752 658.139C397.139 658.139 399.428 657.191 401.116 655.503C402.804 653.815 403.752 651.526 403.752 649.139V631.139H439.252C441.241 631.139 443.149 630.349 444.555 628.943C445.962 627.536 446.752 625.628 446.752 623.639C446.752 621.65 445.962 619.742 444.555 618.336C443.149 616.929 441.241 616.139 439.252 616.139Z" fill="#7F4F3A"/>
</g>
<path id="Ground" d="M854 663.139H1C0.734784 663.139 0.480429 663.034 0.292892 662.846C0.105356 662.659 0 662.404 0 662.139C0 661.874 0.105356 661.62 0.292892 661.432C0.480429 661.245 0.734784 661.139 1 661.139H854C854.265 661.139 854.52 661.245 854.707 661.432C854.895 661.62 855 661.874 855 662.139C855 662.404 854.895 662.659 854.707 662.846C854.52 663.034 854.265 663.139 854 663.139Z" fill="#CCCCCC"/>
<g id="ornament8">
<path id="Vector_37" d="M736.596 502L735.679 515.163L736.776 515.239L737.693 502.077L736.596 502Z" fill="#FFD000" fill-opacity="0.77"/>
<path id="Vector_38" d="M735.593 549.832C745.309 549.832 753.185 541.955 753.185 532.239C753.185 522.523 745.309 514.646 735.593 514.646C725.876 514.646 718 522.523 718 532.239C718 541.955 725.876 549.832 735.593 549.832Z" fill="url(#paint12_radial_1_3)"/>
<ellipse id="Ellipse 1" cx="724.58" cy="532.835" rx="2" ry="13.5" fill="url(#paint13_diamond_1_3)"/>
<ellipse id="Ellipse 2" cx="735.08" cy="532.335" rx="2.5" ry="17" fill="url(#paint14_diamond_1_3)"/>
<ellipse id="Ellipse 3" cx="746.58" cy="532.335" rx="2" ry="14" fill="url(#paint15_diamond_1_3)"/>
</g>
<g id="ornament7">
<path id="Vector_39" d="M529.593 575.833C539.309 575.833 547.185 567.957 547.185 558.241C547.185 548.524 539.309 540.648 529.593 540.648C519.876 540.648 512 548.524 512 558.241C512 567.957 519.876 575.833 529.593 575.833Z" fill="url(#paint16_radial_1_3)"/>
<path id="Vector_40" d="M530.597 528L529.68 541.163L530.777 541.239L531.694 528.077L530.597 528Z" fill="#EEB946"/>
<line id="Line 1" x1="513.025" y1="561.601" x2="536.433" y2="543.811" stroke="#FFD781" stroke-opacity="0.65" stroke-width="2" stroke-linecap="round"/>
<line id="Line 2" x1="515.003" y1="567.598" x2="541.43" y2="546.834" stroke="#FFD781" stroke-opacity="0.65" stroke-width="2" stroke-linecap="round"/>
<line id="Line 3" x1="520.017" y1="571.6" x2="544.432" y2="552.82" stroke="#FFD781" stroke-opacity="0.65" stroke-width="2" stroke-linecap="round"/>
<line id="Line 4" x1="526.014" y1="574.6" x2="546.431" y2="558.823" stroke="#FFD781" stroke-opacity="0.65" stroke-width="2" stroke-linecap="round"/>
<line id="Line 5" x1="513.046" y1="554.604" x2="530.436" y2="541.791" stroke="#FFD781" stroke-opacity="0.65" stroke-width="2" stroke-linecap="round"/>
</g>
<g id="ornament6">
<path id="Vector_41" d="M642.825 469.833C652.542 469.833 660.418 461.957 660.418 452.241C660.418 442.524 652.542 434.648 642.825 434.648C633.109 434.648 625.233 442.524 625.233 452.241C625.233 461.957 633.109 469.833 642.825 469.833Z" fill="url(#paint17_radial_1_3)"/>
<path id="Vector_42" d="M631.203 451.681L626.648 444.623L627.572 444.027L631.49 450.097L639.534 444.121L646.726 451.21L653.797 445.06L660.28 452.515L659.451 453.236L653.689 446.611L646.68 452.707L639.433 445.564L631.203 451.681Z" fill="#EEB946"/>
<path id="Vector_43" d="M657.796 461.889L651.988 455.211L644.974 461.309L637.732 454.171L629.514 460.277L625 453.283L625.805 452.763L629.763 458.897L637.819 452.911L645.016 460.005L652.082 453.859L658.519 461.26L657.796 461.889Z" fill="#EEB946"/>
<path id="Vector_44" d="M643.83 422L642.913 435.163L644.01 435.239L644.927 422.077L643.83 422Z" fill="#EEB946"/>
</g>
<g id="ornament5">
<path id="Vector_45" d="M464.593 456.833C474.309 456.833 482.185 448.957 482.185 439.24C482.185 429.524 474.309 421.648 464.593 421.648C454.876 421.648 447 429.524 447 439.24C447 448.957 454.876 456.833 464.593 456.833Z" fill="url(#paint18_radial_1_3)"/>
<path id="Vector_46" d="M465.597 409L464.68 422.163L465.777 422.239L466.694 409.077L465.597 409Z" fill="#EEB946"/>
</g>
<g id="ornament4">
<path id="Vector_47" d="M700.593 362.833C710.309 362.833 718.185 354.957 718.185 345.241C718.185 335.524 710.309 327.648 700.593 327.648C690.876 327.648 683 335.524 683 345.241C683 354.957 690.876 362.833 700.593 362.833Z" fill="url(#paint19_radial_1_3)"/>
<path id="Vector_48" d="M701.597 315L700.68 328.163L701.777 328.239L702.694 315.077L701.597 315Z" fill="#EEB946"/>
<line id="Line 1_2" x1="684.025" y1="348.601" x2="707.433" y2="330.811" stroke="#FFD781" stroke-opacity="0.65" stroke-width="2" stroke-linecap="round"/>
<line id="Line 2_2" x1="686.003" y1="354.598" x2="712.43" y2="333.834" stroke="#FFD781" stroke-opacity="0.65" stroke-width="2" stroke-linecap="round"/>
<line id="Line 3_2" x1="691.017" y1="358.6" x2="715.432" y2="339.82" stroke="#FFD781" stroke-opacity="0.65" stroke-width="2" stroke-linecap="round"/>
<line id="Line 4_2" x1="697.014" y1="361.6" x2="717.431" y2="345.823" stroke="#FFD781" stroke-opacity="0.65" stroke-width="2" stroke-linecap="round"/>
<line id="Line 5_2" x1="684.046" y1="341.604" x2="701.436" y2="328.791" stroke="#FFD781" stroke-opacity="0.65" stroke-width="2" stroke-linecap="round"/>
</g>
<g id="ornament3">
<path id="Vector_49" d="M551.596 332L550.679 345.163L551.776 345.239L552.693 332.077L551.596 332Z" fill="#FFD000" fill-opacity="0.77"/>
<path id="Vector_50" d="M550.593 379.832C560.309 379.832 568.185 371.955 568.185 362.239C568.185 352.523 560.309 344.646 550.593 344.646C540.876 344.646 533 352.523 533 362.239C533 371.955 540.876 379.832 550.593 379.832Z" fill="url(#paint20_radial_1_3)"/>
<ellipse id="Ellipse 1_2" cx="539.58" cy="362.835" rx="2" ry="13.5" fill="url(#paint21_diamond_1_3)"/>
<ellipse id="Ellipse 2_2" cx="550.08" cy="362.335" rx="2.5" ry="17" fill="url(#paint22_diamond_1_3)"/>
<ellipse id="Ellipse 3_2" cx="561.58" cy="362.335" rx="2" ry="14" fill="url(#paint23_diamond_1_3)"/>
</g>
<g id="ornament2">
<path id="Vector_51" d="M622.593 274.833C632.309 274.833 640.185 266.957 640.185 257.24C640.185 247.524 632.309 239.648 622.593 239.648C612.876 239.648 605 247.524 605 257.24C605 266.957 612.876 274.833 622.593 274.833Z" fill="url(#paint24_radial_1_3)"/>
<path id="Vector_52" d="M623.597 227L622.68 240.163L623.777 240.239L624.694 227.077L623.597 227Z" fill="#EEB946"/>
</g>
<g id="ornament1">
<path id="Vector_53" d="M545.825 167.833C555.542 167.833 563.418 159.957 563.418 150.241C563.418 140.524 555.542 132.648 545.825 132.648C536.109 132.648 528.233 140.524 528.233 150.241C528.233 159.957 536.109 167.833 545.825 167.833Z" fill="url(#paint25_radial_1_3)"/>
<path id="Vector_54" d="M534.203 149.681L529.648 142.623L530.572 142.027L534.49 148.097L542.534 142.121L549.726 149.21L556.797 143.06L563.28 150.515L562.451 151.236L556.689 144.611L549.68 150.707L542.433 143.564L534.203 149.681Z" fill="#EEB946"/>
<path id="Vector_55" d="M560.796 159.889L554.988 153.211L547.974 159.309L540.732 152.171L532.514 158.277L528 151.283L528.805 150.763L532.763 156.897L540.819 150.911L548.016 158.005L555.082 151.859L561.519 159.26L560.796 159.889Z" fill="#EEB946"/>
<path id="Vector_56" d="M546.83 120L545.913 133.163L547.01 133.239L547.927 120.077L546.83 120Z" fill="#EEB946"/>
</g>
</g>
<defs>
<radialGradient id="paint0_radial_1_3" cx="0" cy="0" r="1" gradientUnits="userSpaceOnUse" gradientTransform="translate(306.752 553.639) rotate(68.5273) scale(112.682 93.5259)">
<stop offset="0.352024" stop-color="white"/>
<stop offset="1" stop-color="#808080"/>
</radialGradient>
<radialGradient id="paint1_radial_1_3" cx="0" cy="0" r="1" gradientUnits="userSpaceOnUse" gradientTransform="translate(220 554.5) rotate(62.3005) scale(90.3549 68.7402)">
<stop offset="0.464776" stop-color="white"/>
<stop offset="1" stop-color="#999999"/>
</radialGradient>
<radialGradient id="paint2_radial_1_3" cx="0" cy="0" r="1" gradientUnits="userSpaceOnUse" gradientTransform="translate(303.5 464) rotate(60.8519) scale(119.08 115.571)">
<stop offset="0.28" stop-color="#FFFAFA"/>
<stop offset="1" stop-color="#808080"/>
</radialGradient>
<radialGradient id="paint3_diamond_1_3" cx="0" cy="0" r="1" gradientUnits="userSpaceOnUse" gradientTransform="translate(306.252 451.139) rotate(55.1267) scale(80.8866 119.492)">
<stop stop-color="#448508"/>
<stop offset="0.6" stop-color="#101F02"/>
</radialGradient>
<linearGradient id="paint4_linear_1_3" x1="299.122" y1="501.051" x2="293.937" y2="505.291" gradientUnits="userSpaceOnUse">
<stop stop-color="#64C807"/>
<stop offset="1" stop-color="#3A7206"/>
</linearGradient>
<radialGradient id="paint5_radial_1_3" cx="0" cy="0" r="1" gradientUnits="userSpaceOnUse" gradientTransform="translate(214.5 500) rotate(75.8639) scale(69.6078)">
<stop offset="0.185" stop-color="white"/>
<stop offset="1" stop-color="#A8A8A8"/>
</radialGradient>
<linearGradient id="paint6_linear_1_3" x1="220" y1="441" x2="220" y2="482" gradientUnits="userSpaceOnUse">
<stop stop-color="#CF0000"/>
<stop offset="1" stop-color="#690000"/>
</linearGradient>
<linearGradient id="paint7_linear_1_3" x1="206" y1="513" x2="200.815" y2="517.24" gradientUnits="userSpaceOnUse">
<stop stop-color="#FF7A7A"/>
<stop offset="1" stop-color="#9E5E5E"/>
</linearGradient>
<linearGradient id="paint8_linear_1_3" x1="577.5" y1="600" x2="577.5" y2="661" gradientUnits="userSpaceOnUse">
<stop stop-color="#945200"/>
<stop offset="0.775" stop-color="#471E00"/>
</linearGradient>
<radialGradient id="paint9_radial_1_3" cx="0" cy="0" r="1" gradientUnits="userSpaceOnUse" gradientTransform="translate(585 422) rotate(90.0305) scale(184.799 946.253)">
<stop stop-color="#6FCD16"/>
<stop offset="1" stop-color="#275100"/>
</radialGradient>
<radialGradient id="paint10_radial_1_3" cx="0" cy="0" r="1" gradientUnits="userSpaceOnUse" gradientTransform="translate(585 18.5) rotate(89.0305) scale(325.047 315.807)">
<stop offset="0.31" stop-color="#62CB00"/>
<stop offset="1" stop-color="#366F01"/>
</radialGradient>
<linearGradient id="paint11_linear_1_3" x1="584.902" y1="218.139" x2="584.902" y2="532.762" gradientUnits="userSpaceOnUse">
<stop stop-color="#56A709"/>
<stop offset="1" stop-color="#2D5B00"/>
</linearGradient>
<radialGradient id="paint12_radial_1_3" cx="0" cy="0" r="1" gradientUnits="userSpaceOnUse" gradientTransform="translate(735.593 532.239) rotate(90) scale(17.5926)">
<stop stop-color="#DC0000"/>
<stop offset="1" stop-color="#760000"/>
</radialGradient>
<radialGradient id="paint13_diamond_1_3" cx="0" cy="0" r="1" gradientUnits="userSpaceOnUse" gradientTransform="translate(724.58 532.835) rotate(90) scale(13.5 2)">
<stop stop-color="#FFEEA0" stop-opacity="0.91"/>
<stop offset="1" stop-color="#FFD000" stop-opacity="0.77"/>
</radialGradient>
<radialGradient id="paint14_diamond_1_3" cx="0" cy="0" r="1" gradientUnits="userSpaceOnUse" gradientTransform="translate(735.08 532.335) rotate(90) scale(17 2.5)">
<stop stop-color="#FFEEA0" stop-opacity="0.91"/>
<stop offset="1" stop-color="#FFD000" stop-opacity="0.77"/>
</radialGradient>
<radialGradient id="paint15_diamond_1_3" cx="0" cy="0" r="1" gradientUnits="userSpaceOnUse" gradientTransform="translate(746.58 532.335) rotate(90) scale(14 2)">
<stop stop-color="#FFEEA0" stop-opacity="0.91"/>
<stop offset="1" stop-color="#FFD000" stop-opacity="0.77"/>
</radialGradient>
<radialGradient id="paint16_radial_1_3" cx="0" cy="0" r="1" gradientUnits="userSpaceOnUse" gradientTransform="translate(529.593 558.241) rotate(90) scale(17.5926 17.5926)">
<stop stop-color="#FF0000"/>
<stop offset="1" stop-color="#990000"/>
</radialGradient>
<radialGradient id="paint17_radial_1_3" cx="0" cy="0" r="1" gradientUnits="userSpaceOnUse" gradientTransform="translate(642.825 452.241) rotate(90) scale(17.5926 17.5926)">
<stop stop-color="#E60400"/>
<stop offset="1" stop-color="#730000"/>
</radialGradient>
<radialGradient id="paint18_radial_1_3" cx="0" cy="0" r="1" gradientUnits="userSpaceOnUse" gradientTransform="translate(458.57 433.487) rotate(75.534) scale(24.1106 24.1106)">
<stop stop-color="#DB0000"/>
<stop offset="0.9999" stop-color="#750000"/>
</radialGradient>
<radialGradient id="paint19_radial_1_3" cx="0" cy="0" r="1" gradientUnits="userSpaceOnUse" gradientTransform="translate(700.593 345.241) rotate(90) scale(17.5926 17.5926)">
<stop stop-color="#FF0000"/>
<stop offset="1" stop-color="#990000"/>
</radialGradient>
<radialGradient id="paint20_radial_1_3" cx="0" cy="0" r="1" gradientUnits="userSpaceOnUse" gradientTransform="translate(550.593 362.239) rotate(90) scale(17.5926)">
<stop stop-color="#DC0000"/>
<stop offset="1" stop-color="#760000"/>
</radialGradient>
<radialGradient id="paint21_diamond_1_3" cx="0" cy="0" r="1" gradientUnits="userSpaceOnUse" gradientTransform="translate(539.58 362.835) rotate(90) scale(13.5 2)">
<stop stop-color="#FFEEA0" stop-opacity="0.91"/>
<stop offset="1" stop-color="#FFD000" stop-opacity="0.77"/>
</radialGradient>
<radialGradient id="paint22_diamond_1_3" cx="0" cy="0" r="1" gradientUnits="userSpaceOnUse" gradientTransform="translate(550.08 362.335) rotate(90) scale(17 2.5)">
<stop stop-color="#FFEEA0" stop-opacity="0.91"/>
<stop offset="1" stop-color="#FFD000" stop-opacity="0.77"/>
</radialGradient>
<radialGradient id="paint23_diamond_1_3" cx="0" cy="0" r="1" gradientUnits="userSpaceOnUse" gradientTransform="translate(561.58 362.335) rotate(90) scale(14 2)">
<stop stop-color="#FFEEA0" stop-opacity="0.91"/>
<stop offset="1" stop-color="#FFD000" stop-opacity="0.77"/>
</radialGradient>
<radialGradient id="paint24_radial_1_3" cx="0" cy="0" r="1" gradientUnits="userSpaceOnUse" gradientTransform="translate(616.57 251.487) rotate(75.534) scale(24.1106 24.1106)">
<stop stop-color="#DB0000"/>
<stop offset="0.9999" stop-color="#750000"/>
</radialGradient>
<radialGradient id="paint25_radial_1_3" cx="0" cy="0" r="1" gradientUnits="userSpaceOnUse" gradientTransform="translate(545.825 150.241) rotate(90) scale(17.5926 17.5926)">
<stop stop-color="#E60400"/>
<stop offset="1" stop-color="#730000"/>
</radialGradient>
<clipPath id="clip0_1_3">
<rect width="855" height="663.139" fill="white"/>
</clipPath>
</defs>
</svg>
